<svg width="960" height="180" viewBox="0 0 960 180" fill="none" xmlns="http://www.w3.org/2000/svg">
<path d="M0 168L17.8 153.7C35.7 139.3 71.3 110.7 106.8 112.8C142.3 115 177.7 148 213.2 155.2C248.7 162.3 284.3 143.7 320 137C355.7 130.3 391.3 135.7 426.8 148.8C462.3 162 497.7 183 533.2 178.5C568.7 174 604.3 144 640 130.8C675.7 117.7 711.3 121.3 746.8 131.3C782.3 141.3 817.7 157.7 853.2 154.3C888.7 151 924.3 128 942.2 116.5L960 105V0H942.2C924.3 0 888.7 0 853.2 0C817.7 0 782.3 0 746.8 0C711.3 0 675.7 0 640 0C604.3 0 568.7 0 533.2 0C497.7 0 462.3 0 426.8 0C391.3 0 355.7 0 320 0C284.3 0 248.7 0 213.2 0C177.7 0 142.3 0 106.8 0C71.3 0 35.7 0 17.8 0H0V168Z" fill="#469FE8"/>
</svg>
